<?xml version="1.0" encoding="UTF-8"?>
<svg width="91.868mm" height="127.1mm" version="1.1" viewBox="0 0 91.868 127.1" xml:space="preserve" xmlns="http://www.w3.org/2000/svg"><defs><filter id="b" x="-.098107" y="-.067256" width="1.1962" height="1.1345" color-interpolation-filters="sRGB"><feGaussianBlur stdDeviation="2.7852717"/></filter><filter id="a" x="-.028037" y="-.019221" width="1.0561" height="1.0384" color-interpolation-filters="sRGB"><feGaussianBlur stdDeviation="0.54305517"/></filter></defs><g transform="translate(-57.692 -89.167)" fill="none" filter="url(#b)" stroke="#ceeaff" stroke-linecap="round" stroke-linejoin="round" style="mix-blend-mode:normal"><g transform="matrix(1.7436 0 0 1.7436 -86.609 -46.351)" stroke-width=".97497"><path d="m131.12 102.1c-1.1644-18.63-20.242-20.063-20.242-20.063v46.395h8.5983l0.2687-8.24s11.375-5.1052 11.375-18.092z"/><path d="m107.48 128.35v-39.051s-0.67175-6.5383-7.2324-6.6055c-4.29-0.11149-6.1222 2.3698-7.1153 4.4359-0.28112 0.58486-0.38582 1.8561-0.38582 1.8561s-0.13435 4.0752 2.0152 5.777"/><path d="m107.48 128.25h-8.2332v-8.6898"/><path d="m103.49 120.14s-6.3332 0.50666-7.6632-3.7366c-1.33-4.2433 1.8562-6.9274 1.8562-6.9274"/><path d="m95.448 114.17-0.38629 0.0209s-6.2699 0.50667-5.1299-5.5733l0.07573-0.41726"/><path d="m93.099 108.74s-5.8899 0.37999-6.0166-5.3199c-0.12666-5.6999 4.0533-6.1433 4.0533-6.1433"/><path d="m89.552 97.785s-2.7233-5.8266 3.1033-7.5366l0.16363-0.02596"/><path d="m110.8 107.06s3.0285 1.9761 7.846 0.76005"/><path d="m114.12 128.39v-20.393s0.3391-5.8933 4.6889-4.5369c0 0 1.4032 0.49112 1.1927 2.7128 0 0-0.0117 1.1576-1.3564 1.637"/></g><path d="m83.048 112s-0.346-5.6514 5.3054-5.6514c5.6514 0 5.4207 5.5361 5.4207 5.5361" stroke-width="1.7" style="paint-order:stroke fill markers"/><path d="m88.007 117.66s-5.0747 0.92268-5.0747 5.5361c0 4.6134 4.498 5.7668 4.498 5.7668" stroke-width="1.7" style="paint-order:stroke fill markers"/><path d="m75.436 128.15s-6.1127 3.9214 0.23067 7.9581" stroke-width="1.7" style="paint-order:stroke fill markers"/><path d="m82.01 134.84s1.8454 4.6134 7.2661 2.8834c5.4207-1.73 4.8441-6.5741 4.8441-6.5741" stroke-width="1.7" style="paint-order:stroke fill markers"/><path d="m94.582 125.27s-1.4993-2.768 1.6147-4.4981c3.114-1.73 4.8441 1.8454 4.8441 1.8454" stroke-width="1.7" style="paint-order:stroke fill markers"/><path d="m93.313 142.68s-0.46134 4.152 3.6907 4.3827 3.9214-1.6147 3.9214-1.6147" stroke-width="1.7" style="paint-order:stroke fill markers"/><path d="m87.315 149.95s-1.2459 4.7978 2.768 6.8047c2.768 1.384 3.46-2.5374 3.46-2.5374" stroke-width="1.7" style="paint-order:stroke fill markers"/><path d="m87.212 181.86 34.295-0.31509s2.0849 19.006-9.2968 19.006h-18.876s-6.1229-0.14612-6.1229-18.691z" stroke-width="1.7" style="paint-order:stroke fill markers"/><path d="m97.867 200.89s-2.0101 7.8398 5.6997 7.8398c7.7099 0 6.308-8.1771 6.308-8.1771" stroke-width="1.7" style="paint-order:stroke fill markers"/><path d="m88.597 193.08 31.794-0.31508" stroke-width="1.7" style="paint-order:stroke fill markers"/><path d="m87.536 187.12h33.903" stroke-width="1.7" style="paint-order:stroke fill markers"/></g><g transform="translate(-57.497 -88.373)" fill="none" filter="url(#a)" stroke="#ceeaff" stroke-linecap="round" stroke-linejoin="round" style="mix-blend-mode:normal"><g transform="matrix(1.7436 0 0 1.7436 -86.609 -46.351)" stroke-width=".97497"><path d="m131.12 102.1c-1.1644-18.63-20.242-20.063-20.242-20.063v46.395h8.5983l0.2687-8.24s11.375-5.1052 11.375-18.092z"/><path d="m107.48 128.35v-39.051s-0.67175-6.5383-7.2324-6.6055c-4.29-0.11149-6.1222 2.3698-7.1153 4.4359-0.28112 0.58486-0.38582 1.8561-0.38582 1.8561s-0.13435 4.0752 2.0152 5.777"/><path d="m107.48 128.25h-8.2332v-8.6898"/><path d="m103.49 120.14s-6.3332 0.50666-7.6632-3.7366c-1.33-4.2433 1.8562-6.9274 1.8562-6.9274"/><path d="m95.448 114.17-0.38629 0.0209s-6.2699 0.50667-5.1299-5.5733l0.07573-0.41726"/><path d="m93.099 108.74s-5.8899 0.37999-6.0166-5.3199c-0.12666-5.6999 4.0533-6.1433 4.0533-6.1433"/><path d="m89.552 97.785s-2.7233-5.8266 3.1033-7.5366l0.16363-0.02596"/><path d="m110.8 107.06s3.0285 1.9761 7.846 0.76005"/><path d="m114.12 128.39v-20.393s0.3391-5.8933 4.6889-4.5369c0 0 1.4032 0.49112 1.1927 2.7128 0 0-0.0117 1.1576-1.3564 1.637"/></g><path d="m83.048 112s-0.346-5.6514 5.3054-5.6514c5.6514 0 5.4207 5.5361 5.4207 5.5361" stroke-width="1.7" style="paint-order:stroke fill markers"/><path d="m88.007 117.66s-5.0747 0.92268-5.0747 5.5361c0 4.6134 4.498 5.7668 4.498 5.7668" stroke-width="1.7" style="paint-order:stroke fill markers"/><path d="m75.436 128.15s-6.1127 3.9214 0.23067 7.9581" stroke-width="1.7" style="paint-order:stroke fill markers"/><path d="m82.01 134.84s1.8454 4.6134 7.2661 2.8834c5.4207-1.73 4.8441-6.5741 4.8441-6.5741" stroke-width="1.7" style="paint-order:stroke fill markers"/><path d="m94.582 125.27s-1.4993-2.768 1.6147-4.4981c3.114-1.73 4.8441 1.8454 4.8441 1.8454" stroke-width="1.7" style="paint-order:stroke fill markers"/><path d="m93.313 142.68s-0.46134 4.152 3.6907 4.3827 3.9214-1.6147 3.9214-1.6147" stroke-width="1.7" style="paint-order:stroke fill markers"/><path d="m87.315 149.95s-1.2459 4.7978 2.768 6.8047c2.768 1.384 3.46-2.5374 3.46-2.5374" stroke-width="1.7" style="paint-order:stroke fill markers"/><path d="m87.212 181.86 34.295-0.31509s2.0849 19.006-9.2968 19.006h-18.876s-6.1229-0.14612-6.1229-18.691z" stroke-width="1.7" style="paint-order:stroke fill markers"/><path d="m97.867 200.89s-2.0101 7.8398 5.6997 7.8398c7.7099 0 6.308-8.1771 6.308-8.1771" stroke-width="1.7" style="paint-order:stroke fill markers"/><path d="m88.597 193.08 31.794-0.31508" stroke-width="1.7" style="paint-order:stroke fill markers"/><path d="m87.536 187.12h33.903" stroke-width="1.7" style="paint-order:stroke fill markers"/></g></svg>
