<svg width="14" height="14" viewBox="0 0 14 14" fill="none" xmlns="http://www.w3.org/2000/svg">
<g clip-path="url(#clip0_1222_45812)">
<path d="M6 4.74C9.03757 4.74 11.5 3.79084 11.5 2.62C11.5 1.44916 9.03757 0.5 6 0.5C2.96243 0.5 0.5 1.44916 0.5 2.62C0.5 3.79084 2.96243 4.74 6 4.74Z" stroke="white" stroke-linecap="round" stroke-linejoin="round"/>
<path d="M11.5 5.00012V2.62012" stroke="white" stroke-linecap="round" stroke-linejoin="round"/>
<path d="M0.5 2.62012V9.38012C0.5 10.4511 2.54832 11.3027 5.2109 11.4713" stroke="white" stroke-linecap="round" stroke-linejoin="round"/>
<path d="M0.5 6C0.5 7.08639 2.65546 7.9831 5.36524 8.07369" stroke="white" stroke-linecap="round" stroke-linejoin="round"/>
<path d="M10.47 6.5V8" stroke="white" stroke-linecap="round" stroke-linejoin="round"/>
<path d="M7.43994 8.25L8.73994 9" stroke="white" stroke-linecap="round" stroke-linejoin="round"/>
<path d="M7.43994 11.75L8.73994 11" stroke="white" stroke-linecap="round" stroke-linejoin="round"/>
<path d="M10.47 13.5V12" stroke="white" stroke-linecap="round" stroke-linejoin="round"/>
<path d="M13.5 11.75L12.2 11" stroke="white" stroke-linecap="round" stroke-linejoin="round"/>
<path d="M13.5 8.25L12.2 9" stroke="white" stroke-linecap="round" stroke-linejoin="round"/>
<path d="M10.47 12C11.5745 12 12.47 11.1046 12.47 10C12.47 8.89543 11.5745 8 10.47 8C9.3654 8 8.46997 8.89543 8.46997 10C8.46997 11.1046 9.3654 12 10.47 12Z" stroke="white" stroke-linecap="round" stroke-linejoin="round"/>
</g>
<defs>
<clipPath id="clip0_1222_45812">
<rect width="14" height="14" fill="white"/>
</clipPath>
</defs>
</svg>
