<svg width="14" height="14" viewBox="0 0 14 14" fill="none" xmlns="http://www.w3.org/2000/svg">
<g clip-path="url(#clip0_1222_46753)">
<path fill-rule="evenodd" clip-rule="evenodd" d="M13.1951 1.10295C13.3095 1.35431 13.1984 1.65076 12.947 1.76508L1.44698 6.99508C1.19561 7.1094 0.899166 6.9983 0.784848 6.74693C0.67053 6.49556 0.781631 6.19911 1.033 6.08479L12.533 0.854794C12.7844 0.740476 13.0808 0.851578 13.1951 1.10295Z" fill="white"/>
<path fill-rule="evenodd" clip-rule="evenodd" d="M10.1221 0.323614C10.2194 0.0652026 10.5078 -0.0653596 10.7663 0.0319955L12.9163 0.841995C13.1739 0.93907 13.3046 1.2262 13.2086 1.48426L12.4086 3.63426C12.3123 3.89306 12.0244 4.0248 11.7656 3.9285C11.5068 3.8322 11.3751 3.54433 11.4714 3.28552L12.0977 1.60223L10.4137 0.967787C10.1553 0.870432 10.0247 0.582026 10.1221 0.323614Z" fill="white"/>
<path fill-rule="evenodd" clip-rule="evenodd" d="M11.25 6.5V13H12.75V6.5H11.25ZM10.5429 5.79284C10.7304 5.60536 10.9848 5.5 11.25 5.5H12.75C13.0152 5.5 13.2696 5.60536 13.4571 5.79284L13.4573 5.79301C13.6446 5.98047 13.75 6.23475 13.75 6.5V13.5C13.75 13.7761 13.5261 14 13.25 14H10.75C10.4739 14 10.25 13.7761 10.25 13.5V6.5C10.25 6.23475 10.3554 5.98047 10.5427 5.79301L10.5429 5.79284Z" fill="white"/>
<path fill-rule="evenodd" clip-rule="evenodd" d="M6.25001 8H7.74999L7.75 8.00001V13H6.25V8.00001L6.25001 8ZM5.54292 7.29288C5.73045 7.10534 5.9848 7 6.25 7H7.75C8.0152 7 8.26955 7.10534 8.45708 7.29288C8.4571 7.29289 8.45711 7.2929 8.45712 7.29292M5.54292 7.29288C5.5429 7.29289 5.54289 7.2929 5.54288 7.29292C5.35534 7.48045 5.25 7.7348 5.25 8V13.5C5.25 13.7761 5.47386 14 5.75 14H8.25C8.52614 14 8.75 13.7761 8.75 13.5V8C8.75 7.7348 8.64466 7.48045 8.45712 7.29292" fill="white"/>
<path fill-rule="evenodd" clip-rule="evenodd" d="M1.25 9.5H2.74999L2.75 9.50001V13H1.25V9.5L1.25 9.5ZM0.542909 8.79288C0.730441 8.60536 0.984785 8.5 1.25 8.5H2.75C3.0152 8.5 3.26955 8.60534 3.45708 8.79288C3.4571 8.79289 3.45711 8.7929 3.45712 8.79292M0.542909 8.79288C0.542902 8.79289 0.542896 8.79289 0.54289 8.7929C0.355346 8.98044 0.25 9.2348 0.25 9.5V13.5C0.25 13.7761 0.473858 14 0.75 14H3.25C3.52614 14 3.75 13.7761 3.75 13.5V9.5C3.75 9.2348 3.64466 8.98045 3.45712 8.79292" fill="white"/>
</g>
<defs>
<clipPath id="clip0_1222_46753">
<rect width="14" height="14" fill="white"/>
</clipPath>
</defs>
</svg>
