<?xml version="1.0" standalone="no"?>
<svg xmlns="http://www.w3.org/2000/svg" preserveAspectRatio="none" viewBox="0 0 1440 320" transform="rotate(180)">
   
    <path fill="#1E293B" fill-opacity="1"
        d="M0,288L0,96L51.4,96L51.4,192L102.9,192L102.9,128L154.3,128L154.3,64L205.7,64L205.7,32L257.1,32L257.1,96L308.6,96L308.6,96L360,96L360,128L411.4,128L411.4,192L462.9,192L462.9,128L514.3,128L514.3,192L565.7,192L565.7,160L617.1,160L617.1,128L668.6,128L668.6,160L720,160L720,256L771.4,256L771.4,64L822.9,64L822.9,128L874.3,128L874.3,0L925.7,0L925.7,128L977.1,128L977.1,64L1028.6,64L1028.6,64L1080,64L1080,224L1131.4,224L1131.4,96L1182.9,96L1182.9,32L1234.3,32L1234.3,288L1285.7,288L1285.7,160L1337.1,160L1337.1,64L1388.6,64L1388.6,96L1440,96L1440,320L1388.6,320L1388.6,320L1337.1,320L1337.1,320L1285.7,320L1285.7,320L1234.3,320L1234.3,320L1182.9,320L1182.9,320L1131.4,320L1131.4,320L1080,320L1080,320L1028.6,320L1028.6,320L977.1,320L977.1,320L925.7,320L925.7,320L874.3,320L874.3,320L822.9,320L822.9,320L771.4,320L771.4,320L720,320L720,320L668.6,320L668.6,320L617.1,320L617.1,320L565.7,320L565.7,320L514.3,320L514.3,320L462.9,320L462.9,320L411.4,320L411.4,320L360,320L360,320L308.6,320L308.6,320L257.1,320L257.1,320L205.7,320L205.7,320L154.3,320L154.3,320L102.9,320L102.9,320L51.4,320L51.4,320L0,320L0,320Z">
    </path>
</svg>